HIERARCHY
ROOT ui
{
	 OFFSET 0 0 0
	 CHANNELS 3 XPosition YPosition Z Position
	 EndSite
	 {
	 OFFSET 0 -1 0
	 }
}
ROOT li
{
	 OFFSET 0 0 0
	 CHANNELS 3 XPosition YPosition Z Position
	 EndSite
	 {
	 OFFSET 0 -1 0
	 }
}
ROOT ul
{
	 OFFSET 0 0 0
	 CHANNELS 3 XPosition YPosition Z Position
	 EndSite
	 {
	 OFFSET 0 -1 0
	 }
}
ROOT ll
{
	 OFFSET 0 0 0
	 CHANNELS 3 XPosition YPosition Z Position
	 EndSite
	 {
	 OFFSET 0 -1 0
	 }
}
ROOT tt
{
	 OFFSET 0 0 0
	 CHANNELS 3 XPosition YPosition Z Position
	 EndSite
	 {
	 OFFSET 0 -1 0
	 }
}
ROOT tb
{
	 OFFSET 0 0 0
	 CHANNELS 3 XPosition YPosition Z Position
	 EndSite
	 {
	 OFFSET 0 -1 0
	 }
}
ROOT td
{
	 OFFSET 0 0 0
	 CHANNELS 3 XPosition YPosition Z Position
	 EndSite
	 {
	 OFFSET 0 -1 0
	 }
}
ROOT v
{
	 OFFSET 0 0 0
	 CHANNELS 3 XPosition YPosition Z Position
	 EndSite
	 {
	 OFFSET 0 -1 0
	 }
}
ROOT bn
{
	 OFFSET 0 0 0
	 CHANNELS 3 XPosition YPosition Z Position
	 EndSite
	 {
	 OFFSET 0 -1 0
	 }
}
MOTION
Frames: 27
Frame Time: 0.002
-0.013192985534667969	0.0032192089557647706	0		0.4896881713867188	-2.466510986328125	0		-0.9008988037109374	0.3280690307617187	0		-0.6967488403320312	-2.6027431640625	0		1.697543701171875	-0.6864074096679688	0		3.362982421875	-0.4341475830078125	0		4.582380859375	-0.3604737548828125	0		5.97078173828125	0.43148141479492186	0		-0.17044363403320312	5.92566552734375	0		
-0.009591875076293945	0.00792828893661499	0		0.5197716064453125	-2.489261962890625	0		-0.8913737182617187	0.32770123291015624	0		-0.6504706420898437	-2.61373291015625	0		1.7029599609375	-0.69177392578125	0		3.360890625	-0.4104269409179688	0		4.59085498046875	-0.36296432495117187	0		5.970310546875	0.43110552978515626	0		-0.15657609558105468	5.93721044921875	0		
-2.5087499618530276E-4	-0.0014351370334625244	0		0.5212345581054687	-2.48651025390625	0		-0.8867875366210938	0.33244775390625	0		-0.6849564819335937	-2.607341552734375	0		1.7085635986328125	-0.684127685546875	0		3.375217529296875	-0.41998202514648436	0		4.5995859375	-0.3484617614746094	0		5.98196630859375	0.4395145263671875	0		-0.15687638854980468	5.938017578125	0		
0.015389998435974122	0.008118471145629884	0		0.49002203369140623	-2.462190185546875	0		-0.8173595581054688	0.32813128662109375	0		-0.6645499267578125	-2.605844482421875	0		1.7408741455078125	-0.692921875	0		3.382028076171875	-0.3994078369140625	0		4.5880830078125	-0.34662966918945315	0		5.98147509765625	0.4401094970703125	0		-0.03702348327636719	5.9458330078125	0		
-0.018222782135009767	0.0035117859840393065	0		0.48736480712890623	-2.46333935546875	0		-0.8969182739257813	0.32633404541015626	0		-0.6912940673828125	-2.611539306640625	0		1.7403271484375	-0.6921593017578125	0		3.36241259765625	-0.4033963317871094	0		4.61537890625	-0.35646026611328124	0		5.9768603515625	0.43375607299804686	0		-0.037265251159667966	5.94767236328125	0		
0.017085346221923828	-0.006246880054473877	0		0.5152857666015624	-2.489001953125	0		-0.8974208984375	0.32722323608398435	0		-0.6471632690429687	-2.6244169921875	0		1.739775634765625	-0.6913966064453125	0		3.36595849609375	-0.39777963256835935	0		4.60491259765625	-0.35166741943359375	0		5.9724814453125	0.44138201904296875	0		-0.037515110015869144	5.9475205078125	0		
-0.013473447799682617	-0.007892998218536377	0		0.4627869873046875	-2.47930322265625	0		-0.8820196533203125	0.3218469848632812	0		-0.7078201904296875	-2.623521240234375	0		1.767156005859375	-0.6951134033203125	0		3.392455810546875	-0.3955650329589844	0		4.6204814453125	-0.345331787109375	0		5.9897021484375	0.42461590576171876	0		-0.152954833984375	5.93531689453125	0		
0.026242605209350588	0.005267879962921143	0		0.555932861328125	-2.49208203125	0		-0.8784327392578125	0.326668701171875	0		-0.6324931030273437	-2.6249306640625	0		1.7727366943359375	-0.68747412109375	0		3.388377197265625	-0.36884954833984374	0		4.62716650390625	-0.33286959838867186	0		5.984380859375	0.4342056884765625	0		-0.021716131210327148	5.958939453125	0		
-0.00733292818069458	6.582880020141601E-4	0		0.5154314575195312	-2.483605712890625	0		-0.8988548583984375	0.3298902587890625	0		-0.639228759765625	-2.6299609375	0		1.769149658203125	-0.6906986694335937	0		3.3896552734375	-0.38125390625	0		4.62460009765625	-0.3362807006835937	0		5.98392822265625	0.4346793212890625	0		-0.155213134765625	5.9390380859375	0		
0.015141521453857422	-0.0029224390983581543	0		0.5111649169921875	-2.462760986328125	0		-0.82936669921875	0.3255617980957031	0		-0.685652099609375	-2.617324951171875	0		1.774771484375	-0.6831013793945313	0		3.390485107421875	-0.3626739196777344	0		4.63132958984375	-0.32387954711914063	0		5.97452001953125	0.4362706909179688	0		-0.03612540435791016	5.94882373046875	0		
-0.015331807136535645	-0.004620265960693359	0		0.5121840209960937	-2.485037109375	0		-0.9047605590820312	0.32769049072265627	0		-0.6414949340820313	-2.631262451171875	0		1.7773692626953126	-0.678480712890625	0		3.41089501953125	-0.37046524047851564	0		4.62574609375	-0.3313052978515625	0		5.97024267578125	0.4437384033203125	0		-0.16954039001464843	5.9288994140625	0		
0.015181395530700683	-0.0093932466506958	0		0.5204838256835937	-2.4924658203125	0		-0.89330859375	0.31830471801757815	0		-0.7129174194335938	-2.62123876953125	0		1.786116455078125	-0.666996337890625	0		3.38606396484375	-0.3355072937011719	0		4.63253369140625	-0.31897610473632815	0		5.9875810546875	0.42679296875	0		-0.035199886322021486	5.9483583984375	0		
-0.004920032978057862	0.006675778865814209	0		0.51621337890625	-2.476707275390625	0		-0.8895818481445312	0.32302130126953127	0		-0.6395193481445313	-2.62474365234375	0		1.7938975830078125	-0.6555297241210938	0		3.409449951171875	-0.3484211120605469	0		4.63040869140625	-0.30352813720703126	0		5.98240283203125	0.43620278930664064	0		-0.035163990020751955	5.94908740234375	0		
0.00957568359375	-0.0028924551010131834	0		0.4840889587402344	-2.4544990234375	0		-0.8939580078125	0.3198409118652344	0		-0.7139597778320312	-2.619726806640625	0		1.7996456298828125	-0.6480640869140625	0		3.414669921875	-0.3150495910644531	0		4.63590234375	-0.3122489318847656	0		5.98210302734375	0.4364947814941406	0		-0.16845860290527342	5.93009228515625	0		
-0.007732926845550537	-0.0029455339908599854	0		0.4836359252929687	-2.45387939453125	0		-0.9060547485351562	0.33075772094726563	0		-0.6523807373046875	-2.61710986328125	0		1.785712890625	-0.6242893676757812	0		3.41435595703125	-0.31462026977539065	0		4.6448486328125	-0.29705804443359374	0		5.97697802734375	0.44484320068359373	0		-0.03500375747680664	5.95043359375	0		
0.009023998260498047	-0.0016332590579986573	0		0.48119110107421875	-2.455264892578125	0		-0.8995379028320313	0.31730294799804687	0		-0.7256849365234375	-2.6091845703125	0		1.7946072998046876	-0.6129500732421875	0		3.401412841796875	-0.29499862670898436	0		4.6366787109375	-0.2905982666015625	0		5.98644921875	0.4279090270996094	0		-0.033909709930419925	5.95002734375	0		
-0.012264684677124023	-0.004699771881103516	0		0.51345361328125	-2.476303466796875	0		-0.8946717529296875	0.3218317260742187	0		-0.6731712646484375	-2.61550634765625	0		1.8065938720703125	-0.5987018432617187	0		3.423170654296875	-0.2950168762207031	0		4.64161474609375	-0.2803913879394531	0		5.99039208984375	0.4360554809570312	0		-0.01568385887145996	5.95627783203125	0		
0.02963116645812988	8.011399954557418E-5	0		0.5094015808105469	-2.46074365234375	0		-0.8948400268554687	0.3223982238769531	0		-0.7012973022460938	-2.603460693359375	0		1.8237789306640626	-0.5755811767578125	0		3.409482177734375	-0.26543728637695313	0		4.6537119140625	-0.26333203125	0		5.98608935546875	0.4283287963867187	0		-0.018482784271240234	5.960849609375	0		
-0.01752903175354004	3.8036799430847166E-4	0		0.4863675842285156	-2.446891845703125	0		-0.826055908203125	0.31769613647460937	0		-0.6405276489257813	-2.601031982421875	0		1.8297242431640626	-0.568302734375	0		3.400197509765625	-0.2719674072265625	0		4.6474091796875	-0.27097415161132815	0		5.98111962890625	0.4376029968261719	0		-0.032540958404541014	5.95057177734375	0		
0.013261323928833007	-0.004741779804229736	0		0.4861481323242188	-2.44648779296875	0		-0.9001473388671875	0.31946438598632815	0		-0.6766948852539062	-2.596944091796875	0		1.8418472900390626	-0.5531697387695312	0		3.416367919921875	-0.25497166442871094	0		4.65926171875	-0.2719573974609375	0		5.976880859375	0.42984765625	0		-0.16577496337890624	5.931353515625	0		
-0.012802586555480958	-0.0029048409461975098	0		0.485972900390625	-2.446128662109375	0		-0.9002211303710937	0.31987417602539064	0		-0.6748405151367187	-2.594578125	0		1.7857784423828125	-0.4938594055175781	0		3.424466552734375	-0.24386367797851563	0		4.63445361328125	-0.2553108825683594	0		5.9857919921875	0.428845947265625	0		-0.032274009704589844	5.95137548828125	0		
0.008207720756530762	0.0010512750148773194	0		0.46093246459960935	-2.44037158203125	0		-0.8902879028320313	0.31905389404296874	0		-0.7058135986328125	-2.58467919921875	0		1.785132080078125	-0.46957159423828126	0		3.426898681640625	-0.21568057250976563	0		4.63849462890625	-0.24919732666015626	0		5.985748046875	0.42898953247070315	0		-0.01795370674133301	5.96245556640625	0		
-0.012891395568847656	-0.0022924649715423584	0		0.4908527526855469	-2.43963427734375	0		-0.8903112182617188	0.31935873413085936	0		-0.69980419921875	-2.578486572265625	0		1.7814451904296875	-0.44926608276367186	0		3.42391552734375	-0.2124314727783203	0		4.6415810546875	-0.24208601379394531	0		5.98572705078125	0.42912139892578127	0		-0.017835042953491212	5.96273828125	0		
0.013079429626464844	-0.0035179319381713867	0		0.490798095703125	-2.439406982421875	0		-0.8903121948242188	0.3196129455566406	0		-0.6727412719726562	-2.5717177734375	0		1.81367333984375	-0.4356356201171875	0		3.447256591796875	-0.1926737060546875	0		4.6367119140625	-0.2338516387939453	0		5.98088916015625	0.43832949829101564	0		-0.03093783378601074	5.951208984375	0		
0.008184270858764648	0.0017630800008773804	0		0.5136499633789062	-2.446629638671875	0		-0.8902926025390625	0.319818603515625	0		-0.7195595703125	-2.5596796875	0		1.806986083984375	-0.4183465881347656	0		3.4213798828125	-0.18606779479980468	0		4.64568701171875	-0.23588491821289062	0		5.98091064453125	0.43843701171875	0		-0.03181986808776856	5.952419921875	0		
-0.012849143028259277	-0.0017111810445785522	0		0.4628109436035156	-2.437575927734375	0		-0.8843271484375	0.31587197875976564	0		-0.7066593627929687	-2.56575244140625	0		1.82028173828125	-0.40344766235351565	0		3.40969970703125	-0.16973942565917968	0		4.6498251953125	-0.22985226440429687	0		5.98094970703125	0.43852871704101565	0		-0.19821693420410155	5.9265341796875	0		
0.01317937183380127	-0.003063455104827881	0		0.4928772583007813	-2.4360029296875	0		-0.8802040405273438	0.31991656494140625	0		-0.7354240112304687	-2.55412158203125	0		1.839754638671875	-0.37969046020507813	0		3.4477431640625	-0.17032699584960936	0		4.6478388671875	-0.23173399353027344	0		5.9899833984375	0.43744244384765624	0		-0.014516992568969727	5.9593779296875	0		
